# xmcd
#
# Track frame offsets:
#	150
#	29119
#	47659
#	63809
#	90741
#	115684
#	136103
#	176310
#	188199
#	206465
#	224171
#
# Disc length: 3259 seconds
#
# Revision: 0
# Processed by: cddbd v1.4PL0 Copyright (c) Steve Scherf et al.
# Submitted via: audiograbber 1.81.03
#
DISCID=9b0cb90b
DTITLE=rùzní interpreti - Harp Attack
DYEAR=1900
DGENRE=Country
TTITLE0=Down Home Blues
TTITLE1=Who
TTITLE2=Keep Your Hands Out Of My Pocket
TTITLE3=Little Car Blues
TTITLE4=My Eyes Keep Me In Trouble
TTITLE5=Broke And Hungry
TTITLE6=Hit Man
TTITLE7=Black Night
TTITLE8=Somebody Changed the Lock
TTITLE9=Second Hand Man
TTITLE10=New Kid On The Block
EXTD=
EXTT0=
EXTT1=
EXTT2=
EXTT3=
EXTT4=
EXTT5=
EXTT6=
EXTT7=
EXTT8=
EXTT9=
EXTT10=
PLAYORDER=
